<svg width="30" height="30" viewBox="0 0 30 30" fill="none" xmlns="http://www.w3.org/2000/svg">
<path d="M11.876 15C11.876 13.2742 13.2747 11.8747 15.0005 11.8747C16.7263 11.8747 18.1257 13.2742 18.1257 15C18.1257 16.7258 16.7263 18.1252 15.0005 18.1252C13.2747 18.1252 11.876 16.7258 11.876 15ZM10.1865 15C10.1865 17.6587 12.3417 19.8139 15.0005 19.8139C17.6592 19.8139 19.8144 17.6587 19.8144 15C19.8144 12.3412 17.6592 10.186 15.0005 10.186C12.3417 10.186 10.1865 12.3412 10.1865 15ZM18.88 9.99517C18.8799 10.2177 18.9458 10.4352 19.0694 10.6203C19.1929 10.8053 19.3685 10.9496 19.5741 11.0348C19.7796 11.12 20.0058 11.1424 20.224 11.0991C20.4423 11.0558 20.6428 10.9487 20.8002 10.7914C20.9576 10.6342 21.0648 10.4338 21.1083 10.2155C21.1518 9.99733 21.1296 9.77112 21.0445 9.56552C20.9595 9.35992 20.8154 9.18416 20.6304 9.06047C20.4454 8.93678 20.228 8.87071 20.0055 8.87063H20.005C19.7068 8.87076 19.4208 8.98927 19.2098 9.20012C18.9989 9.41098 18.8803 9.69693 18.88 9.99517ZM11.213 22.631C10.299 22.5894 9.80216 22.4371 9.47201 22.3085C9.03431 22.1381 8.72201 21.9352 8.39366 21.6073C8.06531 21.2794 7.86206 20.9674 7.69241 20.5297C7.56371 20.1997 7.41146 19.7027 7.36991 18.7887C7.32446 17.8005 7.31538 17.5036 7.31538 15.0001C7.31538 12.4965 7.32521 12.2005 7.36991 11.2114C7.41153 10.2974 7.56491 9.80145 7.69241 9.47047C7.86281 9.03277 8.06576 8.72047 8.39366 8.39213C8.72156 8.06378 9.03356 7.86053 9.47201 7.69088C9.80201 7.56218 10.299 7.40992 11.213 7.36837C12.2012 7.32292 12.498 7.31385 15.0005 7.31385C17.5029 7.31385 17.8001 7.32367 18.7891 7.36837C19.7031 7.41 20.1991 7.56337 20.5301 7.69088C20.9678 7.86053 21.2801 8.06422 21.6084 8.39213C21.9368 8.72003 22.1393 9.03277 22.3097 9.47047C22.4384 9.80047 22.5906 10.2974 22.6322 11.2114C22.6776 12.2005 22.6867 12.4965 22.6867 15.0001C22.6867 17.5036 22.6776 17.7997 22.6322 18.7887C22.5906 19.7027 22.4376 20.1995 22.3097 20.5297C22.1393 20.9674 21.9363 21.2797 21.6084 21.6073C21.2805 21.9349 20.9678 22.1381 20.5301 22.3085C20.2001 22.4372 19.7031 22.5895 18.7891 22.631C17.8009 22.6765 17.5041 22.6855 15.0005 22.6855C12.4969 22.6855 12.2009 22.6765 11.213 22.631ZM11.1354 5.68177C10.1373 5.72722 9.45536 5.88547 8.85978 6.11722C8.24298 6.35655 7.72083 6.67762 7.19906 7.19857C6.67728 7.71952 6.35703 8.2425 6.11771 8.8593C5.88596 9.45525 5.72771 10.1368 5.68226 11.1349C5.63606 12.1345 5.62548 12.4541 5.62548 15C5.62548 17.5459 5.63606 17.8655 5.68226 18.8651C5.72771 19.8632 5.88596 20.5448 6.11771 21.1407C6.35703 21.7571 6.67736 22.2807 7.19906 22.8014C7.72076 23.3221 8.24298 23.6428 8.85978 23.8828C9.45648 24.1145 10.1373 24.2728 11.1354 24.3182C12.1355 24.3637 12.4545 24.375 15.0005 24.375C17.5464 24.375 17.866 24.3644 18.8656 24.3182C19.8637 24.2728 20.5452 24.1145 21.1412 23.8828C21.7576 23.6428 22.2801 23.3224 22.8019 22.8014C23.3237 22.2805 23.6433 21.7571 23.8833 21.1407C24.115 20.5448 24.274 19.8631 24.3187 18.8651C24.3642 17.8648 24.3747 17.5459 24.3747 15C24.3747 12.4541 24.3642 12.1345 24.3187 11.1349C24.2733 10.1368 24.115 9.45487 23.8833 8.8593C23.6433 8.24287 23.3229 7.72035 22.8019 7.19857C22.281 6.6768 21.7576 6.35655 21.1419 6.11722C20.5452 5.88547 19.8636 5.72648 18.8664 5.68177C17.8668 5.63633 17.5472 5.625 15.0012 5.625C12.4553 5.625 12.1355 5.63558 11.1354 5.68177Z" fill="#2F3644"/>
</svg>
