<svg width="20" height="20" viewBox="0 0 20 20" fill="none" xmlns="http://www.w3.org/2000/svg">
<path d="M15.5521 14.7186C14.8958 14.703 14.2552 14.703 13.599 14.7186C13.4583 14.7186 13.4271 14.6873 13.4271 14.5467C13.4271 13.3905 13.4271 12.2186 13.4271 11.0623C13.4271 10.7967 13.4115 10.5311 13.3333 10.2811C13.099 9.46858 12.1615 9.1717 11.4896 9.71858C11.1302 9.99983 10.9896 10.3905 10.9896 10.8592C10.9896 11.953 10.9896 13.0467 10.9896 14.1405C10.9896 14.2811 10.974 14.4217 10.9896 14.578C11.0052 14.703 10.9427 14.7342 10.8333 14.7186C10.1615 14.7186 9.50522 14.7186 8.83334 14.7186C8.70834 14.7186 8.67709 14.6873 8.67709 14.5623C8.69272 13.578 8.69272 12.5936 8.69272 11.5936C8.69272 10.3748 8.69272 9.15608 8.67709 7.95295C8.67709 7.81233 8.70834 7.78108 8.83334 7.78108C9.50522 7.78108 10.1615 7.78108 10.8333 7.78108C10.9583 7.78108 10.9896 7.81233 10.9896 7.93733C10.9896 8.18733 10.9896 8.43733 10.9896 8.7342C11.0365 8.68733 11.0521 8.6717 11.0677 8.65608C11.6771 7.76545 12.5365 7.51545 13.5521 7.6717C14.724 7.8592 15.474 8.6717 15.6615 9.9217C15.7083 10.2186 15.724 10.5155 15.724 10.8123C15.724 12.0623 15.724 13.2967 15.724 14.5467C15.724 14.6717 15.6927 14.7186 15.5521 14.7186Z" fill="#2F3644"/>
<path d="M7.42709 11.25C7.42709 12.3438 7.42709 13.4375 7.42709 14.5312C7.42709 14.6719 7.39584 14.7188 7.25522 14.7188C6.59897 14.7031 5.94272 14.7188 5.28647 14.7188C5.16147 14.7188 5.13022 14.6875 5.13022 14.5625C5.13022 12.3594 5.13022 10.1406 5.13022 7.9375C5.13022 7.82812 5.16147 7.78125 5.28647 7.78125C5.95834 7.78125 6.63022 7.78125 7.30209 7.78125C7.44272 7.78125 7.45834 7.82812 7.45834 7.95312C7.42709 9.04688 7.42709 10.1406 7.42709 11.25Z" fill="#2F3644"/>
<path d="M7.53646 5.96864C7.38021 6.59364 6.73958 6.95301 6.00521 6.82801C5.22396 6.70301 4.78646 5.93739 5.06771 5.18739C5.25521 4.71864 5.70833 4.43739 6.28646 4.45301C7.16146 4.43739 7.73958 5.14051 7.53646 5.96864Z" fill="#2F3644"/>
</svg>
