<svg width="20" height="20" viewBox="0 0 20 20" fill="none" xmlns="http://www.w3.org/2000/svg">
<path d="M14.901 7.83862C14.901 7.948 14.901 8.05737 14.901 8.15112C14.901 11.3855 12.4323 15.1199 7.93228 15.1199C6.54166 15.1199 5.26041 14.7136 4.16666 14.0261C4.35416 14.0417 4.55728 14.0574 4.74478 14.0574C5.88541 14.0574 6.94791 13.6667 7.79166 13.0105C6.71353 12.9949 5.80728 12.2761 5.51041 11.3074C5.66666 11.3386 5.80728 11.3542 5.97916 11.3542C6.19791 11.3542 6.41666 11.323 6.61978 11.2605C5.49478 11.0417 4.65103 10.0574 4.65103 8.86987C4.65103 8.85425 4.65103 8.85425 4.65103 8.83862C4.97916 9.02612 5.35416 9.1355 5.76041 9.15112C5.10416 8.71362 4.66666 7.96362 4.66666 7.10425C4.66666 6.65112 4.79166 6.22925 4.99478 5.86987C6.19791 7.35425 8.01041 8.323 10.0417 8.43237C9.99478 8.2605 9.97916 8.05737 9.97916 7.86987C9.97916 6.5105 11.0729 5.41675 12.4323 5.41675C13.1354 5.41675 13.776 5.71362 14.2135 6.18237C14.776 6.073 15.2917 5.86987 15.776 5.58862C15.5885 6.16675 15.1979 6.6355 14.6979 6.948C15.1979 6.8855 15.6667 6.7605 16.1042 6.55737C15.7917 7.05737 15.3854 7.49487 14.901 7.83862Z" fill="#2F3644"/>
</svg>
