<svg width="20" height="20" viewBox="0 0 20 20" fill="none" xmlns="http://www.w3.org/2000/svg">
<path fill-rule="evenodd" clip-rule="evenodd" d="M15.1408 6.26771C15.6762 6.41186 16.0984 6.83402 16.2425 7.36943C16.5102 8.3476 16.4999 10.3863 16.4999 10.3863C16.4999 10.3863 16.4999 12.4147 16.2425 13.3929C16.0984 13.9283 15.6762 14.3505 15.1408 14.4946C14.1626 14.752 10.25 14.752 10.25 14.752C10.25 14.752 6.3476 14.752 5.35914 14.4843C4.82372 14.3402 4.40156 13.918 4.25741 13.3826C4 12.4147 4 10.376 4 10.376C4 10.376 4 8.3476 4.25741 7.36943C4.40156 6.83402 4.83402 6.40156 5.35914 6.25741C6.3373 6 10.25 6 10.25 6C10.25 6 14.1626 6 15.1408 6.26771ZM12.2578 10.376L9.00409 12.2499V8.50199L12.2578 10.376Z" fill="#2F3644"/>
</svg>
