<svg xmlns="https://www.w3.org/2000/svg" viewBox="0 0 97 102" width="97" height="102">
	<defs>
		<clipPath clipPathUnits="userSpaceOnUse" id="cp1">
			<path d="M-841 -1176L959 -1176L959 1224L-841 1224Z" />
		</clipPath>
	</defs>
	<style>
		tspan { white-space:pre }
		.shp0 { fill: #f9f4bd }
		.shp1 { fill: #2c2e35 }
	</style>
	<g id="Page 1" clip-path="url(#cp1)">
		<path id="Path 1" class="shp0" d="M93.69 52.92C93.69 77.81 73.42 97.98 48.42 97.98C23.42 97.98 3.16 77.81 3.16 52.92C3.16 28.03 23.42 7.85 48.42 7.85C73.42 7.85 93.69 28.03 93.69 52.92Z" />
		<path id="Path 2" class="shp1" d="M88.69 39.87C88.45 39.26 88.05 38.73 87.56 38.3C87.06 37.86 86.47 37.52 85.86 37.26C84.46 36.7 82.92 36.53 81.43 36.72C80.41 36.86 79.4 37.17 78.52 37.72C78.29 37.88 78.05 38.02 77.88 38.25C76.58 39.81 75.59 41.6 74.31 43.18C73.79 43.8 73.22 44.39 72.51 44.79C72.06 45.03 71.53 45.14 71.01 45.08C70.49 45.03 69.99 44.8 69.58 44.49C69.17 44.18 68.82 43.81 68.48 43.43C67.78 42.62 67.12 41.75 66.32 41.03C65.59 40.36 64.73 39.83 63.78 39.52C63.39 39.39 62.98 39.32 62.58 39.22C61.52 38.94 60.48 38.56 59.57 37.93C59.04 37.56 58.57 37.09 58.25 36.52C57.93 35.96 57.79 35.3 57.84 34.66C57.9 33.95 58.15 33.26 58.51 32.64C59.11 31.64 60 30.86 60.9 30.13C61.98 29.25 63.13 28.44 64.21 27.54C65.34 26.61 66.42 25.59 67.26 24.38C67.61 23.85 68 23.35 68.43 22.89C69.28 21.97 70.27 21.2 71.24 20.41C72.07 19.75 72.87 19.03 73.46 18.14C74.1 17.18 74.52 16.05 74.57 14.89C74.63 13.52 74.39 12.16 73.99 10.86C73.2 8.36 71.76 6.04 69.8 4.28C68.88 3.45 67.84 2.76 66.73 2.21C65.15 1.43 63.43 0.97 61.68 0.8C60 0.64 58.3 0.64 56.64 0.94C55.17 1.21 53.73 1.73 52.48 2.56C51.33 3.32 50.37 4.34 49.61 5.49C49.51 5.7 49.38 5.89 49.26 6.09C48.81 6.77 48.5 7.52 48.05 8.2C47.21 9.83 46.55 11.56 46.02 13.32C45.63 14.7 45.21 16.1 45.18 17.55C45.16 18.44 45.26 19.35 45.64 20.16C45.75 20.38 45.87 20.6 46.03 20.78C47.1 21.74 48.25 22.64 49.12 23.8C49.56 24.39 49.92 25.06 50.08 25.78C50.24 26.47 50.18 27.19 50.01 27.86C49.84 28.54 49.53 29.17 49.11 29.73C48.4 30.69 47.4 31.43 46.28 31.86C45.55 32.14 44.76 32.29 43.98 32.22C43.67 32.19 43.37 32.12 43.07 32.06C42.1 31.85 41.13 31.65 40.15 31.54C38.47 31.33 36.75 31.32 35.11 31.73C33.74 32.07 32.44 32.73 31.41 33.69C30.9 34.17 30.43 34.69 29.96 35.21C28.97 36.33 28.02 37.49 27.1 38.66C26.21 39.78 25.35 40.92 24.5 42.08C22.89 44.27 21.32 46.49 19.86 48.78C19.49 49.35 19.15 49.93 18.81 50.5C18.46 51.05 18.07 51.58 17.59 52.02C17.14 52.44 16.59 52.77 16 52.95C15.66 53.06 15.3 53.12 14.97 53.27C14.37 53.51 13.86 53.93 13.44 54.4C12.94 54.97 12.54 55.62 12.32 56.34C12.15 56.89 12.07 57.5 12.26 58.06C12.39 58.46 12.67 58.8 13.03 59.01C13.56 59.33 14.21 59.42 14.82 59.43C15.78 59.47 16.75 59.41 17.67 59.16C18.28 59 18.86 58.73 19.37 58.37C19.92 57.98 20.4 57.5 20.85 57C20.99 56.85 21.11 56.68 21.26 56.54C21.61 56.31 21.93 56.03 22.18 55.71C22.49 55.32 22.8 54.94 23.1 54.55C23.24 54.36 23.41 54.18 23.51 53.97C23.62 53.74 23.82 53.57 23.99 53.39C24.39 52.98 24.81 52.58 25.24 52.2C25.31 52.13 25.35 52.25 25.39 52.29C26.62 51.26 27.76 50.12 28.9 48.99C29.84 48.05 30.76 47.09 31.68 46.12C32.06 45.72 32.54 45.43 33.03 45.21C33.8 44.86 34.63 44.65 35.47 44.54C36.37 44.43 37.29 44.44 38.17 44.66C38.86 44.83 39.55 45.15 40.05 45.67C40.43 46.06 40.69 46.57 40.8 47.11C40.9 47.54 40.89 47.98 40.9 48.42C40.91 49.68 40.88 50.94 40.72 52.18C40.61 52.98 40.45 53.79 40.14 54.54C39.87 55.16 39.49 55.74 38.94 56.15C37.81 56.94 36.71 57.77 35.66 58.67C34.6 59.58 33.58 60.54 32.7 61.63C32.26 62.18 31.85 62.76 31.55 63.39C31.3 63.9 31.16 64.46 31.04 65.01C30.86 65.83 30.77 66.66 30.74 67.5C30.7 68.79 30.78 70.09 31.01 71.36C30.24 72.86 29.41 74.34 28.48 75.76C27.93 76.59 27.35 77.41 26.65 78.12C26.31 78.44 25.94 78.77 25.46 78.84C24.6 78.97 23.72 79.01 22.85 79.06C20.42 79.18 17.98 79.25 15.55 79.35C14.38 79.41 13.21 79.45 12.05 79.58C11.79 79.63 11.51 79.64 11.28 79.76C11.24 79.78 11.21 79.81 11.18 79.84L13.07 82.07L15.38 86.15L17.36 87.68C17.8 87.64 18.25 87.65 18.69 87.66C21.56 87.78 24.44 88.05 27.31 87.77C28.1 87.69 28.89 87.56 29.65 87.33C30.27 87.14 30.87 86.87 31.36 86.45C31.67 86.19 31.87 85.84 32.12 85.53C33.04 84.4 34.02 83.32 35.01 82.25C36.99 80.14 39.02 78.07 41.11 76.05C41.76 75.43 42.41 74.8 43.1 74.22C43.29 74.08 43.45 73.9 43.67 73.8C44.03 73.75 44.4 73.79 44.76 73.8C45.77 73.85 46.77 73.94 47.77 74.05C49.57 74.25 51.36 74.52 53.13 74.9C54.75 75.23 56.36 75.66 57.92 76.21C59.36 76.73 60.77 77.34 62.03 78.2C63.02 78.88 63.94 79.72 64.51 80.79C64.82 81.36 64.96 81.99 65.13 82.61C65.59 84.32 65.93 86.05 66.27 87.79C66.58 89.29 66.86 90.81 67.33 92.28C67.58 93.04 67.87 93.8 68.3 94.48C68.64 94.99 69.06 95.47 69.6 95.77C70.16 96.09 70.81 96.2 71.45 96.16C73.5 96.03 75.56 96.22 77.62 96.23C78.68 96.24 79.75 96.2 80.79 95.96C81.47 95.79 82.15 95.51 82.66 95.02C83.11 94.58 83.4 93.99 83.51 93.37C83.63 92.7 83.68 92.01 83.57 91.33C83.48 90.69 83.22 90.07 82.78 89.59C82.3 89.06 81.64 88.73 80.96 88.54C80.17 88.32 79.34 88.28 78.53 88.31C77.73 88.33 76.9 88.41 76.13 88.14C75.62 87.97 75.22 87.56 75.02 87.06C74.68 86.22 74.71 85.29 74.7 84.39C74.67 82.53 74.52 80.66 74.24 78.81C74.01 77.33 73.7 75.86 73.19 74.44C72.81 73.39 72.33 72.36 71.61 71.5C71.15 70.97 70.6 70.51 69.94 70.26C69.54 70.09 69.1 70.04 68.68 69.95C67.04 69.62 65.41 69.2 63.82 68.67C62.47 68.22 61.14 67.68 59.89 66.99C59.26 66.63 58.65 66.22 58.13 65.71C57.76 65.34 57.44 64.88 57.34 64.36C57.08 63.03 57.32 61.65 57.77 60.39C58.39 58.7 59.37 57.15 60.49 55.76C61.11 54.99 61.72 54.22 62.29 53.41C62.54 53.04 62.8 52.68 62.99 52.28C63.21 52.43 63.43 52.57 63.65 52.71C65.12 53.62 66.71 54.37 68.42 54.69C69.3 54.84 70.22 54.86 71.08 54.59C71.71 54.4 72.28 54.04 72.74 53.58C73.16 53.14 73.56 52.7 73.98 52.26C74.87 51.31 75.75 50.34 76.75 49.5C76.73 49.46 76.71 49.43 76.7 49.4C77.36 48.77 78.1 48.21 78.89 47.76C79.61 47.36 80.4 47.04 81.22 46.98C82.19 46.94 83.15 46.99 84.11 46.89C84.82 46.81 85.52 46.66 86.17 46.36C86.73 46.1 87.23 45.73 87.63 45.26C88.4 44.38 88.77 43.22 88.92 42.07C89.03 41.33 88.97 40.56 88.69 39.87ZM76.18 17.18C86.83 25.44 93.69 38.37 93.69 52.9C93.69 66.32 87.84 78.38 78.54 86.66C79.67 86.51 81.1 86.55 82.37 87.29C91.26 78.53 96.77 66.36 96.77 52.9C96.77 36.66 88.75 22.3 76.45 13.55C76.46 14.69 76.39 15.94 76.18 17.18ZM65.73 94.68C60.42 96.88 54.61 98.09 48.5 98.09C23.55 98.09 3.32 77.86 3.32 52.9C3.32 28.6 22.5 8.78 46.55 7.76C47.02 6.84 47.67 5.74 48.48 4.64C21.84 4.65 0.24 26.25 0.24 52.9C0.24 79.55 21.85 101.16 48.5 101.16C55.3 101.16 61.76 99.76 67.62 97.22C66.85 96.63 66.07 95.79 65.73 94.68Z" />
	</g>
</svg>