<svg xmlns="http://www.w3.org/2000/svg" width="297.44" height="67.43" viewBox="0 0 297.44 67.43"><defs><style>.cls-1{fill:#4d4d4d;}.cls-2{fill:#00a5d7;}</style></defs><title>sas logo</title><g id="Layer_2" data-name="Layer 2"><g id="Layer_1-2" data-name="Layer 1"><path class="cls-1" d="M106.87,35.09a9.74,9.74,0,0,1-3.66,8Q99.54,46,93,46.05a24,24,0,0,1-10.65-2.27v-7.4a43.73,43.73,0,0,0,6.45,2.39,19.1,19.1,0,0,0,4.82.69,6.82,6.82,0,0,0,4-1,3.41,3.41,0,0,0,1.4-3,3.29,3.29,0,0,0-.61-2,7.09,7.09,0,0,0-1.82-1.66,46.77,46.77,0,0,0-4.87-2.55,22.87,22.87,0,0,1-5.17-3.11,11.5,11.5,0,0,1-2.75-3.47,9.85,9.85,0,0,1-1-4.63,9.73,9.73,0,0,1,3.38-7.84q3.39-2.85,9.35-2.86a21.73,21.73,0,0,1,5.59.7A38,38,0,0,1,106.69,10l-2.57,6.2a37,37,0,0,0-5-1.72A15.79,15.79,0,0,0,95.27,14a5.14,5.14,0,0,0-3.47,1.05,3.51,3.51,0,0,0-1.21,2.76,3.43,3.43,0,0,0,.49,1.83,5.4,5.4,0,0,0,1.56,1.52,47.21,47.21,0,0,0,5,2.64c3.52,1.68,5.92,3.36,7.23,5.05A9.88,9.88,0,0,1,106.87,35.09Z"/><path class="cls-1" d="M136.7,45.53l-2.72-9H120.27l-2.73,9H109L122.22,7.78H132l13.32,37.75ZM132.07,29.9q-3.78-12.16-4.25-13.76c-.32-1.06-.55-1.91-.68-2.52q-.86,3.29-4.86,16.28Z"/><path class="cls-1" d="M172.22,35.09a9.72,9.72,0,0,1-3.67,8q-3.66,2.93-10.19,2.93a24,24,0,0,1-10.65-2.27v-7.4a44.09,44.09,0,0,0,6.44,2.39,19.23,19.23,0,0,0,4.83.69,6.86,6.86,0,0,0,4-1,3.44,3.44,0,0,0,1.4-3,3.23,3.23,0,0,0-.62-2A6.87,6.87,0,0,0,162,31.85a47.89,47.89,0,0,0-4.87-2.55,22.87,22.87,0,0,1-5.17-3.11,11.5,11.5,0,0,1-2.75-3.47,9.85,9.85,0,0,1-1-4.63,9.7,9.7,0,0,1,3.38-7.84q3.38-2.85,9.35-2.86a21.73,21.73,0,0,1,5.59.7A38,38,0,0,1,172,10l-2.57,6.2a37.43,37.43,0,0,0-5-1.72,15.79,15.79,0,0,0-3.87-.49,5.12,5.12,0,0,0-3.47,1.05,3.48,3.48,0,0,0-1.21,2.76,3.34,3.34,0,0,0,.49,1.83A5.23,5.23,0,0,0,158,21.19,48.85,48.85,0,0,0,163,23.83q5.27,2.52,7.23,5.05A9.88,9.88,0,0,1,172.22,35.09Z"/><path class="cls-2" d="M203.11,45.53l-4.68-12H183.35l-4.62,12H174.3L189.17,7.78h3.67l14.79,37.75Zm-6.05-15.89L192.69,18q-.85-2.2-1.75-5.43A49.65,49.65,0,0,1,189.32,18L184.9,29.64Z"/><path class="cls-2" d="M236.64,18.89q0,5.71-3.9,8.78T221.6,30.74h-4.43V45.53H212.8V7.93h9.75Q236.64,7.93,236.64,18.89ZM217.17,27h3.94c3.87,0,6.67-.62,8.41-1.88s2.59-3.25,2.59-6a6.49,6.49,0,0,0-2.44-5.56q-2.44-1.83-7.61-1.83h-4.89Z"/><path class="cls-2" d="M268.35,18.89q0,5.71-3.9,8.78t-11.14,3.07h-4.43V45.53h-4.37V7.93h9.75Q268.34,7.93,268.35,18.89ZM248.88,27h3.94c3.87,0,6.67-.62,8.41-1.88s2.59-3.25,2.59-6a6.49,6.49,0,0,0-2.44-5.56q-2.44-1.83-7.61-1.83h-4.89Z"/><path class="cls-2" d="M297.44,35.53a9.22,9.22,0,0,1-3.6,7.74q-3.6,2.77-9.78,2.78-6.69,0-10.28-1.73V40.11a27.27,27.27,0,0,0,5,1.54,26.2,26.2,0,0,0,5.4.56c2.91,0,5.11-.55,6.58-1.65A5.44,5.44,0,0,0,293,35.94a6,6,0,0,0-.78-3.2,7.24,7.24,0,0,0-2.63-2.3A36.07,36.07,0,0,0,284,28c-3.5-1.25-6-2.73-7.49-4.44a9.85,9.85,0,0,1-2.25-6.72A8.32,8.32,0,0,1,277.53,10a13.55,13.55,0,0,1,8.64-2.58,25.45,25.45,0,0,1,10.31,2.06l-1.36,3.81a23.17,23.17,0,0,0-9.05-2,8.8,8.8,0,0,0-5.43,1.49,4.94,4.94,0,0,0-1.95,4.15,6.34,6.34,0,0,0,.72,3.2,6.84,6.84,0,0,0,2.43,2.29,30.44,30.44,0,0,0,5.23,2.3q5.93,2.1,8.14,4.52A9,9,0,0,1,297.44,35.53Z"/><polygon class="cls-2" points="171.09 53.14 83.08 53.14 83.08 59.14 168.77 59.14 171.09 53.14"/><path class="cls-1" d="M182.45,52.15V57a2.8,2.8,0,0,1-.36,1.44,2.29,2.29,0,0,1-1,1,3.52,3.52,0,0,1-1.59.33,3,3,0,0,1-2.15-.73,2.63,2.63,0,0,1-.77-2V52.15h1.22v4.7a1.84,1.84,0,0,0,.43,1.35,1.76,1.76,0,0,0,1.31.44q1.71,0,1.71-1.8V52.15Z"/><path class="cls-1" d="M189.48,59.57h-1.2V56.12a1.48,1.48,0,0,0-.26-1,1,1,0,0,0-.83-.32,1.34,1.34,0,0,0-1.11.45,2.49,2.49,0,0,0-.35,1.5v2.79h-1.19V54h.94l.16.73h.06a1.72,1.72,0,0,1,.73-.62,2.46,2.46,0,0,1,1-.21,1.8,1.8,0,0,1,2,2Z"/><path class="cls-1" d="M192.66,59.57h-1.19v-7.9h1.19Z"/><path class="cls-1" d="M197.14,59.67a2.72,2.72,0,0,1-2-.76,2.91,2.91,0,0,1-.74-2.1,3.19,3.19,0,0,1,.69-2.17,2.36,2.36,0,0,1,1.88-.78,2.32,2.32,0,0,1,1.76.67,2.58,2.58,0,0,1,.64,1.86V57h-3.74a1.84,1.84,0,0,0,.44,1.26,1.56,1.56,0,0,0,1.18.44,4.42,4.42,0,0,0,.92-.09,4.82,4.82,0,0,0,.92-.32v1a3.66,3.66,0,0,1-.88.3A5.28,5.28,0,0,1,197.14,59.67Zm-.22-4.91a1.2,1.2,0,0,0-.91.36,1.74,1.74,0,0,0-.41,1.05h2.55a1.55,1.55,0,0,0-.34-1.05A1.12,1.12,0,0,0,196.92,54.76Z"/><path class="cls-1" d="M204.52,59.57l-.24-.78h0a2.32,2.32,0,0,1-.82.7,2.66,2.66,0,0,1-1.06.18,1.77,1.77,0,0,1-1.29-.44,1.68,1.68,0,0,1-.46-1.27,1.49,1.49,0,0,1,.64-1.31,3.81,3.81,0,0,1,2-.48l1,0v-.3a1.1,1.1,0,0,0-.26-.8,1,1,0,0,0-.78-.27,2.51,2.51,0,0,0-.82.13,5.12,5.12,0,0,0-.77.3l-.38-.86a4,4,0,0,1,1-.36,4.73,4.73,0,0,1,1-.12,2.42,2.42,0,0,1,1.61.46,1.81,1.81,0,0,1,.55,1.47v3.78Zm-1.78-.81a1.48,1.48,0,0,0,1-.36,1.32,1.32,0,0,0,.4-1v-.49l-.73,0a2.51,2.51,0,0,0-1.22.28.86.86,0,0,0-.39.77.74.74,0,0,0,.23.58A.94.94,0,0,0,202.74,58.76Z"/><path class="cls-1" d="M211.13,58a1.49,1.49,0,0,1-.6,1.27,2.89,2.89,0,0,1-1.72.43,4,4,0,0,1-1.8-.34v-1a4.37,4.37,0,0,0,1.84.46q1.11,0,1.11-.66a.48.48,0,0,0-.13-.36,1.42,1.42,0,0,0-.4-.29,5.36,5.36,0,0,0-.77-.35,3.62,3.62,0,0,1-1.32-.75,1.44,1.44,0,0,1-.34-1,1.3,1.3,0,0,1,.58-1.12,2.82,2.82,0,0,1,1.58-.39,4.47,4.47,0,0,1,1.88.4l-.39.9a4,4,0,0,0-1.53-.38c-.63,0-.94.18-.94.54a.53.53,0,0,0,.25.44,5.1,5.1,0,0,0,1.07.51,5,5,0,0,1,1,.49,1.44,1.44,0,0,1,.47.52A1.47,1.47,0,0,1,211.13,58Z"/><path class="cls-1" d="M217.68,59.57h-1.2V56.12a1.48,1.48,0,0,0-.26-1,1,1,0,0,0-.83-.32,1.3,1.3,0,0,0-1.1.45,2.44,2.44,0,0,0-.35,1.5v2.79h-1.2v-7.9h1.2v2a7.64,7.64,0,0,1-.07,1H214a1.66,1.66,0,0,1,.68-.63,2.18,2.18,0,0,1,1-.22,1.81,1.81,0,0,1,2,2Z"/><path class="cls-1" d="M224.91,55.54l1.76-3.39H228l-2.47,4.54v2.88H224.3V56.73l-2.46-4.58h1.32Z"/><path class="cls-1" d="M234.15,56.75a3.06,3.06,0,0,1-.71,2.15,2.5,2.5,0,0,1-2,.77,2.64,2.64,0,0,1-1.39-.35,2.3,2.3,0,0,1-.93-1,3.44,3.44,0,0,1-.33-1.55,3,3,0,0,1,.7-2.13,2.56,2.56,0,0,1,2-.76,2.49,2.49,0,0,1,1.93.78A3,3,0,0,1,234.15,56.75Zm-4.09,0q0,1.95,1.44,2c.95,0,1.42-.65,1.42-2s-.48-1.92-1.43-1.92a1.22,1.22,0,0,0-1.09.5A2.48,2.48,0,0,0,230.06,56.75Z"/><path class="cls-1" d="M239.8,59.57l-.16-.73h-.07a1.67,1.67,0,0,1-.7.61,2.38,2.38,0,0,1-1.05.22,2.08,2.08,0,0,1-1.53-.5,2.13,2.13,0,0,1-.5-1.54V54H237v3.46a1.5,1.5,0,0,0,.27,1,1,1,0,0,0,.83.32,1.3,1.3,0,0,0,1.1-.45,2.45,2.45,0,0,0,.35-1.51V54h1.2v5.61Z"/><path class="cls-1" d="M245.62,53.86a2.49,2.49,0,0,1,.59,0L246.09,55a2.26,2.26,0,0,0-.53-.06,1.54,1.54,0,0,0-1.16.46,1.74,1.74,0,0,0-.44,1.22v2.93h-1.19V54h.93l.16,1h.06a2.17,2.17,0,0,1,.73-.8A1.7,1.7,0,0,1,245.62,53.86Z"/><path class="cls-1" d="M255.33,59.57l-.74-2.06h-2.84L251,59.57h-1.28l2.78-7.45h1.32l2.78,7.45Zm-1.06-3.1-.7-2c0-.13-.12-.34-.21-.64s-.15-.5-.18-.64a14.25,14.25,0,0,1-.4,1.37l-.68,1.94Z"/><path class="cls-1" d="M262.74,59.57h-1.2V56.12a1.54,1.54,0,0,0-.26-1,1,1,0,0,0-.83-.32,1.31,1.31,0,0,0-1.11.45,2.42,2.42,0,0,0-.35,1.5v2.79H257.8V54h.93l.17.73H259a1.75,1.75,0,0,1,.72-.62,2.51,2.51,0,0,1,1-.21,1.8,1.8,0,0,1,2,2Z"/><path class="cls-1" d="M268.23,59.57l-.24-.78h0a2.3,2.3,0,0,1-.81.7,2.69,2.69,0,0,1-1.06.18,1.77,1.77,0,0,1-1.29-.44,1.68,1.68,0,0,1-.47-1.27,1.49,1.49,0,0,1,.65-1.31,3.77,3.77,0,0,1,2-.48l1,0v-.3a1.1,1.1,0,0,0-.25-.8,1,1,0,0,0-.78-.27,2.57,2.57,0,0,0-.83.13,5.45,5.45,0,0,0-.76.3l-.38-.86a3.82,3.82,0,0,1,1-.36,4.71,4.71,0,0,1,1-.12,2.43,2.43,0,0,1,1.62.46,1.84,1.84,0,0,1,.55,1.47v3.78Zm-1.77-.81a1.48,1.48,0,0,0,1-.36,1.32,1.32,0,0,0,.39-1v-.49l-.72,0a2.51,2.51,0,0,0-1.22.28.86.86,0,0,0-.39.77.74.74,0,0,0,.23.58A.93.93,0,0,0,266.46,58.76Z"/><path class="cls-1" d="M272.27,59.57h-1.2v-7.9h1.2Z"/><path class="cls-1" d="M273.44,54h1.3l1.15,3.18a6.26,6.26,0,0,1,.34,1.28h0a5.58,5.58,0,0,1,.17-.68c.08-.26.51-1.53,1.29-3.78H279l-2.4,6.36a2.28,2.28,0,0,1-2.19,1.75,3.94,3.94,0,0,1-.77-.08V61a2.9,2.9,0,0,0,.62.06,1.25,1.25,0,0,0,1.21-1l.21-.53Z"/><path class="cls-1" d="M282.29,58.71a2.93,2.93,0,0,0,.87-.14v.9a2.24,2.24,0,0,1-.51.15,3.43,3.43,0,0,1-.65.05c-1.13,0-1.69-.59-1.69-1.78v-3h-.77v-.53l.82-.43.41-1.19h.73V54h1.6v.9h-1.6v3a.84.84,0,0,0,.22.63A.77.77,0,0,0,282.29,58.71Z"/><path class="cls-1" d="M284.53,52.47a.64.64,0,0,1,.18-.49.67.67,0,0,1,.5-.18.66.66,0,0,1,.49.18.78.78,0,0,1,0,1,.65.65,0,0,1-.49.17.66.66,0,0,1-.5-.17A.65.65,0,0,1,284.53,52.47Zm1.27,7.1h-1.2V54h1.2Z"/><path class="cls-1" d="M290.09,59.67a2.46,2.46,0,0,1-1.94-.74,3.78,3.78,0,0,1,0-4.31,2.58,2.58,0,0,1,2-.76,3.64,3.64,0,0,1,1.6.33l-.36,1a3.58,3.58,0,0,0-1.25-.3c-1,0-1.46.64-1.46,1.93a2.32,2.32,0,0,0,.36,1.42,1.27,1.27,0,0,0,1.07.48,3,3,0,0,0,1.51-.4v1a2.16,2.16,0,0,1-.69.27A3.72,3.72,0,0,1,290.09,59.67Z"/><path class="cls-1" d="M297.07,58a1.49,1.49,0,0,1-.6,1.27,2.88,2.88,0,0,1-1.71.43,4.06,4.06,0,0,1-1.81-.34v-1a4.38,4.38,0,0,0,1.85.46c.73,0,1.1-.22,1.1-.66a.52.52,0,0,0-.12-.36,1.59,1.59,0,0,0-.4-.29,6.16,6.16,0,0,0-.78-.35,3.48,3.48,0,0,1-1.31-.75,1.4,1.4,0,0,1-.35-1,1.3,1.3,0,0,1,.58-1.12,2.83,2.83,0,0,1,1.59-.39,4.43,4.43,0,0,1,1.87.4l-.39.9a4,4,0,0,0-1.53-.38c-.62,0-.94.18-.94.54a.53.53,0,0,0,.25.44,5.1,5.1,0,0,0,1.07.51,5,5,0,0,1,1,.49,1.44,1.44,0,0,1,.47.52A1.47,1.47,0,0,1,297.07,58Z"/><path class="cls-2" d="M71,32a3.49,3.49,0,0,0-3.23-2.16H3.5a3.5,3.5,0,0,0,0,7H59.3L37.18,59l-9.47-9.47H37.8l7-7H19.26a3.5,3.5,0,0,0-2.48,6L34.7,66.4a3.49,3.49,0,0,0,4.95,0L70.23,35.83A3.48,3.48,0,0,0,71,32Z"/><polygon class="cls-2" points="31.16 15.81 20.04 4.69 35.85 0 31.16 15.81"/><polygon class="cls-2" points="14.97 25.82 28.67 12.07 23.73 7.13 5.08 25.82 14.97 25.82"/></g></g></svg>